Coordinates
version=1
nRows=13
nColumns=26
inDegrees=yes

Units are S.I. units (second, meters, Newtons, ...)
Angles are in degrees.

endheader
time	pelvis_tilt	pelvis_list	pelvis_rotation	pelvis_tx	pelvis_ty	pelvis_tz	hip_flexion_r	hip_adduction_r	hip_rotation_r	knee_angle_r	knee_angle_r_beta	ankle_angle_r	subtalar_angle_r	mtp_angle_r	hip_flexion_l	hip_adduction_l	hip_rotation_l	knee_angle_l	knee_angle_l_beta	ankle_angle_l	subtalar_angle_l	mtp_angle_l	lumbar_extension	lumbar_bending	lumbar_rotation
      1.00800000	    -11.18197400	      9.88082272	     -2.44552854	      1.97972306	      0.96857556	      0.19265929	    -15.24091282	    -14.70972781	    -23.60265039	     21.55824358	      0.37626233	    -18.18584144	      0.00000000	      0.00000000	     60.58440892	      8.15281475	     -2.95881627	    109.78127768	      1.91604475	     16.04754460	      0.00000000	      0.00000000	     -1.83433381	    -11.30499335	     16.51556669
      1.01200000	    -11.83067460	     10.72266801	     -1.93300301	      2.00828290	      0.96963854	      0.19236087	    -16.50179833	    -15.38339651	    -24.89552625	     20.18273619	      0.35225520	    -22.11020578	      0.00000000	      0.00000000	     62.35445890	      8.49885058	     -4.30044774	    107.15093265	      1.87013657	     15.83000423	      0.00000000	      0.00000000	     -0.78795685	    -12.46809380	     16.96830328
      1.01600000	    -12.48484432	     11.52474283	     -1.35967114	      2.03670869	      0.97085974	      0.19235457	    -17.61166408	    -15.96472713	    -26.27041153	     19.16928833	      0.33456720	    -25.34974595	      0.00000000	      0.00000000	     63.95149737	      8.81530753	     -5.64154210	    104.33105348	      1.82092040	     15.54481424	      0.00000000	      0.00000000	      0.19582187	    -13.66363524	     17.32977155
      1.02000000	    -12.94144695	     11.99057525	     -0.86539899	      2.06524780	      0.97221900	      0.19232583	    -18.82594341	    -16.14986662	    -27.39016020	     18.29531429	      0.31931347	    -27.89546444	      0.00000000	      0.00000000	     65.11185874	      8.93644954	     -6.70850181	    101.44004608	      1.77046280	     15.33631903	      0.00000000	      0.00000000	      0.95068751	    -14.45988314	     17.71520017
      1.02400000	    -13.41510005	     12.31776224	     -0.35913295	      2.09345451	      0.97355966	      0.19241970	    -19.82734070	    -16.15250324	    -27.96061862	     17.76980192	      0.31014155	    -29.04127238	      0.00000000	      0.00000000	     66.09848062	      8.93881213	     -7.75503687	     98.40247350	      1.71744715	     15.22515054	      0.00000000	      0.00000000	      1.66259302	    -15.16218364	     18.01730112
      1.02800000	    -13.64425985	     12.00853413	     -0.00947423	      2.12143122	      0.97498708	      0.19250948	    -20.74821126	    -15.57036321	    -27.96856858	     17.76854745	      0.31011966	    -29.21135231	      0.00000000	      0.00000000	     66.63018728	      8.54744807	     -8.29834304	     95.35927564	      1.66433333	     15.33664588	      0.00000000	      0.00000000	      2.06864223	    -15.08740330	     18.36894702
      1.03200000	    -14.06970257	     12.42817777	      0.50028550	      2.14918251	      0.97621256	      0.19248710	    -21.60475707	    -15.55337826	    -27.31053522	     17.77644055	      0.31025742	    -29.76677619	      0.00000000	      0.00000000	     67.20911570	      8.66980274	     -9.58321226	     91.96166694	      1.60503387	     15.05554735	      0.00000000	      0.00000000	      2.63811916	    -15.88506872	     18.60027472
      1.03600000	    -14.23428886	     12.31624158	      0.70589343	      2.17685846	      0.97748950	      0.19257355	    -22.30748902	    -15.21947010	    -26.19382395	     18.58109749	      0.32430133	    -29.29637164	      0.00000000	      0.00000000	     67.34107589	      8.31335292	    -10.53545675	     88.58079890	      1.54602659	     14.84978006	      0.00000000	      0.00000000	      2.95792660	    -16.02167355	     19.06328517
      1.04000000	    -14.31339016	     11.96594762	      0.92172487	      2.20423998	      0.97883949	      0.19247838	    -22.83941145	    -14.56260018	    -24.29052301	     19.81063437	      0.34576080	    -28.40110109	      0.00000000	      0.00000000	     67.23020386	      7.97849265	    -11.19650892	     85.08045316	      1.48493404	     14.85953109	      0.00000000	      0.00000000	      3.12332862	    -15.88184234	     19.35599513
      1.04400000	    -14.45632714	     11.47103402	      1.09629329	      2.23145898	      0.98011452	      0.19233976	    -23.03285111	    -13.76156092	    -21.89709197	     21.54432409	      0.37601939	    -27.69600433	      0.00000000	      0.00000000	     67.05669385	      7.57699984	    -11.78053530	     81.48484052	      1.42217876	     14.71842282	      0.00000000	      0.00000000	      3.33014276	    -15.56874075	     19.65724247
      1.04800000	    -14.45325794	     10.91967444	      1.23868255	      2.25852377	      0.98152861	      0.19215650	    -23.18461706	    -12.87328671	    -19.36175774	     23.62699812	      0.41236891	    -27.61355031	      0.00000000	      0.00000000	     66.58927420	      7.20815674	    -12.28467844	     77.75861541	      1.35714386	     14.52558709	      0.00000000	      0.00000000	      3.35278035	    -15.17684442	     19.95898275
      1.05200000	    -14.35156580	     10.33194500	      1.49143459	      2.28544271	      0.98312893	      0.19167771	    -23.35828887	    -11.86160057	    -16.93554962	     25.90528718	      0.45213256	    -28.24497619	      0.00000000	      0.00000000	     65.88715360	      7.05180999	    -12.64798784	     73.90371241	      1.28986311	     14.43630288	      0.00000000	      0.00000000	      3.19210066	    -14.74426723	     20.03233838
      1.05600000	    -14.34556778	      9.70413057	      1.56065550	      2.31225824	      0.98451928	      0.19164094	    -23.10855049	    -10.90145086	    -14.43049365	     28.77553339	      0.50222780	    -28.80983341	      0.00000000	      0.00000000	     65.12681458	      6.64396173	    -13.11883207	     69.99517005	      1.22164618	     13.75758826	      0.00000000	      0.00000000	      3.17543074	    -14.28318026	     20.40427663
